<svg xmlns="http://www.w3.org/2000/svg" viewBox="0 0 512 512" id="emi-calculator"><path fill="#e1e1e3" d="m474.565 503.72-270 .715a30 30 0 0 1-30.065-30v-437a30 30 0 0 1 29.935-30l270-.714a30 30 0 0 1 30.065 30v437a30 30 0 0 1-29.935 30Z"></path><path fill="#dadadc" d="m474.435 6.721-27.94.074A29.996 29.996 0 0 1 474.5 36.721v437a30 30 0 0 1-29.935 30l-242.06.64c.68.045 1.367.076 2.06.074l270-.714a30 30 0 0 0 29.935-30v-437a30 30 0 0 0-30.065-30Z"></path><rect width="240" height="94.189" x="219.5" y="52.5" fill="#52bbe9" rx="15"></rect><rect width="60" height="45" x="219.5" y="236.689" fill="#aeadb3" rx="10"></rect><path fill="#8b8893" d="M269.5 236.689h-15a10 10 0 0 1 10 10v25a10 10 0 0 1-10 10h15a10 10 0 0 0 10-10v-25a10 10 0 0 0-10-10Z"></path><rect width="60" height="45" x="309.5" y="236.689" fill="#aeadb3" rx="10"></rect><path fill="#8b8893" d="M359.5 236.689h-15a10 10 0 0 1 10 10v25a10 10 0 0 1-10 10h15a10 10 0 0 0 10-10v-25a10 10 0 0 0-10-10Z"></path><rect width="60" height="45" x="399.5" y="236.689" fill="#aeadb3" rx="10"></rect><path fill="#8b8893" d="M449.5 236.689h-15a10 10 0 0 1 10 10v25a10 10 0 0 1-10 10h15a10 10 0 0 0 10-10v-25a10 10 0 0 0-10-10Z"></path><rect width="60" height="45" x="309.5" y="326.689" fill="#aeadb3" rx="10"></rect><path fill="#8b8893" d="M359.5 326.689h-15a10 10 0 0 1 10 10v25a10 10 0 0 1-10 10h15a10 10 0 0 0 10-10v-25a10 10 0 0 0-10-10Z"></path><rect width="60" height="45" x="309.5" y="414.5" fill="#aeadb3" rx="10"></rect><path fill="#8b8893" d="M359.5 414.5h-15a10 10 0 0 1 10 10v25a10 10 0 0 1-10 10h15a10 10 0 0 0 10-10v-25a10 10 0 0 0-10-10Z"></path><rect width="60" height="132.811" x="399.5" y="326.689" fill="#aeadb3" rx="10"></rect><path fill="#8b8893" d="M449.5 326.689h-15a10 10 0 0 1 10 10V449.5a10 10 0 0 1-10 10h15a10 10 0 0 0 10-10V336.689a10 10 0 0 0-10-10Z"></path><path fill="#aeadb3" d="M279.5 199.188h-60a7.5 7.5 0 0 1 0-15h60a7.5 7.5 0 0 1 0 15zm90 0h-60a7.5 7.5 0 0 1 0-15h60a7.5 7.5 0 0 1 0 15zm90 0h-60a7.5 7.5 0 0 1 0-15h60a7.5 7.5 0 0 1 0 15z"></path><rect width="301.644" height="178.052" x="6.736" y="326.41" fill="#e4222e" rx="30"></rect><path fill="#c0232c" d="M278.38 326.41h-30a30 30 0 0 1 30 30v118.052a30 30 0 0 1-30 30h30a30 30 0 0 0 30-30V356.41a30 30 0 0 0-30-30Z"></path><circle cx="429.5" cy="99.594" r="7.5" fill="#fff"></circle><circle cx="399.5" cy="99.594" r="7.5" fill="#fff"></circle><circle cx="369.5" cy="99.594" r="7.5" fill="#fff"></circle><circle cx="339.5" cy="99.594" r="7.5" fill="#fff"></circle><path fill="#fff" d="M119.308 466.936a7.5 7.5 0 0 1-7.5-7.5v-88a7.5 7.5 0 0 1 15 0v88a7.5 7.5 0 0 1-7.5 7.5zm60 0a7.5 7.5 0 0 1-7.5-7.5v-88a7.5 7.5 0 0 1 15 0v88a7.5 7.5 0 0 1-7.5 7.5z"></path><path fill="#fff" d="M149.308 423.936a7.498 7.498 0 0 1-6.24-3.34l-30-45a7.5 7.5 0 0 1 12.48-8.32l23.76 35.639 23.76-35.64a7.5 7.5 0 1 1 12.48 8.32l-30 45a7.498 7.498 0 0 1-6.24 3.34zm-105 43a7.5 7.5 0 0 1-7.5-7.5v-88a7.5 7.5 0 0 1 15 0v88a7.5 7.5 0 0 1-7.5 7.5z"></path><path fill="#fff" d="M89.308 378.936h-45a7.5 7.5 0 0 1 0-15h45a7.5 7.5 0 0 1 0 15zm0 88h-45a7.5 7.5 0 0 1 0-15h45a7.5 7.5 0 0 1 0 15zm0-44h-45a7.5 7.5 0 0 1 0-15h45a7.5 7.5 0 0 1 0 15zm151.5 44a7.5 7.5 0 0 1-7.5-7.5v-88a7.5 7.5 0 0 1 15 0v88a7.5 7.5 0 0 1-7.5 7.5z"></path><path fill="#fff" d="M270.808 378.936h-60a7.5 7.5 0 0 1 0-15h60a7.5 7.5 0 0 1 0 15zm0 88h-60a7.5 7.5 0 0 1 0-15h60a7.5 7.5 0 0 1 0 15z"></path></svg>